PathFileType  4	(X/Y/Z) C:\Users\antoi\Documents\MyRepositories\mobilecap\ResultsAnalysis
DataRate	CameraRate	NumFrames	NumMarkers	Units	OrigDataRate	OrigDataStartFrame	OrigNumFrames
100.0	100.0	7	51	mm	100.0	686	1371
Frame#	Time	r_knee			r_shank_antsup			r_ankle			r_calc			r_5meta			r_toe			L_knee			L_shank_antsup			L_ankle			L_calc			L_5meta			L_toe			r_sh2			r_sh3			r_sh4			L_sh2			L_sh3			r_thigh1			r_thigh2			r_thigh3			r_thigh4			r_thigh5			L_thigh1			L_thigh2			L_thigh3			L_thigh4			r.ASIS			r.PSIS			L.ASIS			L.PSIS			C7			R_Shoulder			L_Shoulder			R_Sternum			L_Sternum			R_humerus			R_elbow_med			R_elbow_lat			R_forearm			R_wrist_radius			R_wrist_ulna			L_humerus			L_elbow_med			L_elbow_lat			L_forearm			L_wrist_radius			L_wrist_ulna			R_HJC			L_HJC			R_HJC_reg			L_HJC_reg			
		X1	Y1	Z1	X2	Y2	Z2	X3	Y3	Z3	X4	Y4	Z4	X5	Y5	Z5	X6	Y6	Z6	X7	Y7	Z7	X8	Y8	Z8	X9	Y9	Z9	X10	Y10	Z10	X11	Y11	Z11	X12	Y12	Z12	X13	Y13	Z13	X14	Y14	Z14	X15	Y15	Z15	X16	Y16	Z16	X17	Y17	Z17	X18	Y18	Z18	X19	Y19	Z19	X20	Y20	Z20	X21	Y21	Z21	X22	Y22	Z22	X23	Y23	Z23	X24	Y24	Z24	X25	Y25	Z25	X26	Y26	Z26	X27	Y27	Z27	X28	Y28	Z28	X29	Y29	Z29	X30	Y30	Z30	X31	Y31	Z31	X32	Y32	Z32	X33	Y33	Z33	X34	Y34	Z34	X35	Y35	Z35	X36	Y36	Z36	X37	Y37	Z37	X38	Y38	Z38	X39	Y39	Z39	X40	Y40	Z40	X41	Y41	Z41	X42	Y42	Z42	X43	Y43	Z43	X44	Y44	Z44	X45	Y45	Z45	X46	Y46	Z46	X47	Y47	Z47	X48	Y48	Z48	X49	Y49	Z49	X50	Y50	Z50	X51	Y51	Z51	

686	6.85000000	-214.23826	504.58375	-418.96972	-175.71742	459.58903	-424.19180	-248.48122	96.78912	-428.43820	-308.52213	58.04884	-475.51769	-126.56886	40.03348	-388.74845	-85.40365	59.46162	-444.38642	-225.08738	500.41467	-775.51709	-202.03179	417.31126	-790.99322	-265.85412	97.26397	-752.91422	-324.53658	57.86694	-702.63780	-149.17903	41.24640	-791.99860	-102.26203	58.63006	-739.59001	-180.24764	343.91841	-431.01620	-244.65587	459.65003	-388.57149	-247.82080	343.68054	-380.67982	-289.26746	431.58228	-797.75386	-295.69865	309.19337	-796.37643	-124.98117	797.90550	-488.26501	-118.30475	687.54397	-472.82637	-143.21222	671.73244	-410.63627	-194.41384	805.58206	-399.97291	-191.12780	691.53126	-388.42895	-177.82370	824.30381	-782.80743	-180.07115	683.30613	-800.16854	-290.51560	823.99455	-779.16050	-292.24004	682.98862	-767.62339	-147.34123	972.36020	-470.82608	-335.46943	1002.69736	-552.00789	-141.68350	960.62733	-711.22488	-335.92666	1002.70612	-650.47529	-252.27856	1467.58830	-611.01809	-180.13881	1441.18081	-444.86958	-180.64031	1426.56474	-771.17066	-138.47525	1382.49193	-588.90866	-141.25383	1373.37575	-618.71096	-244.42681	1226.21885	-340.26296	-330.94240	1142.76136	-363.57133	-284.17164	1146.66239	-309.14951	-158.04741	1117.11772	-369.44403	-81.19576	1123.50424	-432.85757	-79.35672	1081.83440	-416.49003	-249.87987	1211.74170	-863.52082	-318.96790	1109.69923	-819.57057	-294.06171	1114.28702	-884.91205	-161.47782	1058.41832	-839.82734	-74.96434	1045.03424	-783.65980	-84.59249	1001.56191	-792.33433	-220.07221	889.20802	-507.39826	-228.05892	891.38585	-697.88896	-213.30507	893.46025	-503.96337	-214.04236	893.47479	-662.85878	
687	6.86000000	-213.80514	504.43557	-419.25008	-175.26364	459.47148	-424.44164	-248.45864	96.77576	-428.53225	-308.49842	58.06496	-475.53132	-126.56267	40.05846	-388.75964	-85.39008	59.44535	-444.41155	-225.13582	500.34123	-775.41362	-201.84801	417.08195	-790.72502	-265.84065	97.23811	-752.91946	-324.54183	57.82488	-702.66569	-149.18562	41.23547	-792.01204	-102.27063	58.62368	-739.59728	-179.79644	343.70509	-431.11127	-244.07152	459.42884	-388.97423	-247.27185	343.51114	-380.84870	-289.06006	431.43261	-797.64829	-295.58451	309.10865	-796.34382	-126.67734	798.25253	-488.59868	-119.37210	688.05048	-473.19728	-143.81305	671.87584	-411.11178	-195.76246	805.51513	-400.11430	-191.75255	691.41906	-388.60889	-179.30062	824.30404	-782.63818	-180.91659	683.44784	-800.22258	-292.09795	823.49506	-779.20016	-293.15406	682.54858	-767.70604	-149.53519	972.32323	-470.88668	-337.74916	1002.70541	-552.09543	-144.58507	959.81051	-711.89875	-337.94995	1002.70220	-650.74609	-252.22517	1467.52930	-611.34490	-180.13680	1441.06319	-445.02805	-180.63872	1426.26119	-771.41830	-138.23042	1381.70700	-588.93227	-139.31378	1374.20792	-620.70111	-244.78522	1226.01545	-340.47857	-331.27673	1142.60218	-363.87569	-284.61531	1146.45067	-309.48545	-158.31778	1117.10830	-369.54844	-81.47824	1123.46677	-433.11184	-79.55701	1081.83768	-416.58567	-250.01925	1211.32760	-863.62196	-319.19134	1109.48936	-819.75174	-294.22155	1113.87230	-884.97510	-161.63952	1058.32910	-839.60900	-75.17717	1045.14258	-783.18476	-84.78611	1001.59761	-791.78273	-222.53025	889.17992	-507.44949	-230.84108	890.86718	-697.93133	-216.03635	892.84594	-504.29120	-216.36092	892.84083	-663.60745	
688	6.87000000	-213.25829	504.29833	-419.49255	-174.62771	459.38008	-424.60740	-248.38645	96.85573	-428.48502	-308.46912	58.08375	-475.54785	-126.57171	40.07884	-388.75622	-85.37511	59.43194	-444.44887	-225.06959	500.25676	-775.30369	-201.62259	416.87012	-790.53158	-265.82824	97.21924	-752.92708	-324.55090	57.79134	-702.69420	-149.19317	41.21820	-792.02179	-102.28030	58.61124	-739.60369	-179.26277	343.68174	-431.38593	-243.43111	459.17992	-389.31148	-246.72307	343.66242	-380.73117	-288.77645	431.21630	-797.42918	-295.43557	308.95024	-796.17989	-128.56949	798.65519	-488.97681	-120.42445	688.61435	-473.58863	-144.35492	672.05076	-411.58998	-197.23776	805.32402	-400.31689	-192.38411	691.31859	-388.85813	-180.95617	824.26498	-782.43111	-181.88242	683.47819	-800.21422	-293.71513	822.94169	-779.53296	-294.12379	681.99941	-767.71892	-152.02823	972.25340	-470.95411	-340.26303	1002.71770	-552.11530	-147.29342	959.23599	-712.08577	-340.14995	1002.68227	-651.08397	-252.04612	1467.46619	-611.64172	-180.08085	1440.83854	-445.09375	-180.49503	1425.89001	-771.73727	-137.66489	1380.39562	-588.79165	-136.02597	1375.67053	-623.49962	-244.99657	1225.77144	-340.61532	-331.51834	1142.30186	-364.24383	-284.97932	1146.15065	-309.85397	-158.48405	1117.00574	-369.71105	-81.65272	1123.39278	-433.30815	-79.63253	1081.82816	-416.65315	-250.11566	1210.83241	-863.74725	-319.35191	1109.12910	-819.82242	-294.31432	1113.40978	-884.98875	-161.72608	1058.19873	-839.35935	-75.30678	1045.28288	-782.81801	-84.84090	1001.68694	-791.25013	-225.18505	889.13779	-507.43338	-233.51620	890.49799	-697.91801	-218.90242	892.52703	-504.56819	-218.72089	892.46984	-663.97698	
689	6.88000000	-212.57463	504.20049	-419.67934	-173.80686	459.28692	-424.74423	-248.26506	96.98210	-428.38118	-308.44520	58.11016	-475.56380	-126.57236	40.10683	-388.76319	-85.35766	59.42066	-444.48574	-224.91173	500.05161	-774.97466	-201.32814	416.70929	-790.40719	-265.80780	97.21076	-752.92800	-324.55225	57.77694	-702.70716	-149.18547	41.20466	-791.97697	-102.28092	58.60639	-739.60739	-178.61971	343.66385	-431.70809	-242.67907	459.07524	-389.44164	-245.77512	343.39372	-381.31742	-288.39983	431.03982	-797.21284	-295.21352	308.74900	-795.86522	-130.67030	799.06111	-489.40111	-121.56786	689.15926	-474.03980	-144.91904	672.39900	-411.87215	-198.86940	804.99537	-400.54602	-193.12726	691.17631	-389.15319	-182.74469	824.20413	-782.14447	-182.93947	683.29835	-799.92664	-295.38751	822.26762	-779.92169	-295.14672	681.38188	-767.85237	-154.77667	972.08757	-471.07974	-342.98541	1002.82336	-552.20940	-149.71235	959.03682	-711.83372	-342.61724	1002.79714	-651.29051	-251.71017	1467.41579	-611.79528	-179.90970	1440.46695	-445.15409	-180.21619	1425.36877	-771.98825	-137.82741	1379.75806	-588.77688	-135.88077	1375.39248	-624.51675	-245.05368	1225.37859	-340.83167	-331.59383	1141.91199	-364.63809	-285.13345	1145.79890	-310.11026	-158.49321	1116.82370	-369.84103	-81.65987	1123.28081	-433.37798	-79.55639	1081.76810	-416.70432	-250.11796	1210.24495	-863.83898	-319.45960	1108.56370	-819.75276	-294.31910	1112.87635	-885.02324	-161.68884	1058.06189	-839.12544	-75.30797	1045.42619	-782.52408	-84.69172	1001.77158	-790.66843	-228.03278	889.08132	-507.44186	-236.10503	890.43622	-697.93765	-221.79883	892.53224	-504.81243	-221.20718	892.49008	-663.97734	
690	6.89000000	-211.71720	504.01891	-419.86933	-172.77929	459.09513	-425.02463	-248.15530	97.05341	-428.35056	-308.42659	58.14482	-475.57915	-126.54882	40.14412	-388.77542	-85.33325	59.40859	-444.50089	-224.63592	499.79434	-774.53351	-200.90081	416.55080	-790.21243	-265.77199	97.21628	-752.91776	-324.54156	57.78118	-702.70239	-149.16212	41.20739	-791.88888	-102.27289	58.61393	-739.60797	-177.87236	343.57346	-432.00229	-241.66157	459.07183	-389.47217	-244.77769	343.04058	-382.06491	-287.87454	430.96849	-797.03173	-294.85118	308.58100	-795.60648	-132.99102	799.45901	-489.80469	-122.84596	689.67677	-474.61600	-145.58963	672.84165	-412.05121	-200.73038	804.71280	-400.67080	-193.99384	690.86189	-389.43203	-184.63024	824.15455	-781.85135	-183.91300	683.03871	-799.50726	-297.26725	821.47906	-780.30974	-296.23210	680.63996	-768.07031	-157.77382	971.79931	-471.11600	-345.91858	1002.99098	-552.44296	-152.36629	958.76428	-711.38970	-345.33191	1003.03034	-651.38911	-251.22087	1467.31284	-611.98826	-179.58421	1439.96302	-445.30128	-179.84984	1424.64519	-772.07920	-138.68969	1380.08402	-589.11568	-139.53131	1373.01444	-623.47880	-244.96193	1224.84924	-341.09134	-331.45087	1141.41681	-365.02849	-285.05225	1145.41112	-310.28971	-158.29730	1116.55318	-369.93520	-81.46498	1123.05269	-433.49296	-79.25990	1081.61773	-416.76426	-249.98776	1209.55981	-863.88616	-319.52126	1107.88294	-819.69800	-294.20348	1112.23900	-885.18635	-161.54747	1057.89430	-838.82437	-75.13290	1045.58093	-782.24247	-84.39659	1001.82392	-790.06275	-231.24940	888.98744	-507.39598	-238.97290	890.37729	-697.90569	-224.96272	892.47559	-504.96789	-224.02061	892.53892	-663.81901	
691	6.90000000	-210.70844	503.66716	-420.13828	-171.57060	458.78000	-425.43099	-248.08057	97.07333	-428.40113	-308.40124	58.19016	-475.59809	-126.52226	40.15078	-388.80023	-85.30528	59.40850	-444.50352	-224.02548	499.73551	-774.40059	-200.27935	416.34007	-789.87475	-265.71109	97.24522	-752.90905	-324.52420	57.80282	-702.68666	-149.14275	41.22625	-791.83010	-102.26299	58.62268	-739.57961	-176.96321	343.20990	-432.23496	-240.37450	459.09019	-389.74046	-244.14865	343.36387	-381.87051	-287.19052	430.94256	-796.80826	-294.28642	308.47561	-795.51724	-135.53601	799.88118	-490.21722	-124.19502	690.25134	-475.16696	-146.43781	673.10977	-412.40110	-202.84754	804.42897	-400.71826	-194.88381	690.52521	-389.56554	-186.68686	824.07033	-781.60111	-184.78056	682.88478	-799.25080	-299.41390	820.60977	-780.79386	-297.37549	679.72387	-768.21464	-161.06225	971.36395	-471.07578	-349.05002	1003.12121	-552.69884	-155.42974	958.23446	-710.91308	-348.25231	1003.27969	-651.49793	-250.54754	1467.07134	-612.34925	-179.13890	1439.40006	-445.49921	-179.36595	1423.73618	-772.07416	-138.99394	1379.94869	-589.47542	-141.76600	1371.06405	-622.82365	-244.67809	1224.25215	-341.28167	-331.12421	1140.75953	-365.40769	-284.77811	1144.89547	-310.50634	-157.95909	1116.19006	-370.08125	-81.08054	1122.74820	-433.69141	-78.76261	1081.40490	-416.82108	-249.70286	1208.77431	-863.91342	-319.45399	1107.19520	-819.70562	-293.95976	1111.46684	-885.37814	-161.25213	1057.56936	-838.40485	-74.78007	1045.76119	-781.94309	-83.96184	1001.89597	-789.63133	-234.85100	888.79757	-507.29834	-242.22550	890.16323	-697.82210	-228.47732	892.18231	-505.08844	-227.19746	892.43657	-663.65606	
692	6.91000000	-209.56366	503.28530	-420.50610	-170.22001	458.48487	-425.72077	-248.01745	97.10202	-428.45525	-308.36701	58.23055	-475.61648	-126.51539	40.11152	-388.84127	-85.28570	59.43008	-444.51577	-222.95866	499.85272	-774.67434	-199.37542	416.07545	-789.51753	-265.61215	97.31411	-752.93791	-324.50660	57.83905	-702.66387	-149.13502	41.25329	-791.81670	-102.25319	58.62201	-739.51437	-175.89082	342.66432	-432.38082	-238.96459	459.15051	-390.16617	-243.34776	343.74759	-381.44485	-286.32760	430.89201	-796.52062	-293.58301	308.44267	-795.41440	-138.32973	800.31280	-490.69999	-125.60466	690.91512	-475.50639	-147.37455	673.18686	-412.94262	-205.18723	803.97513	-400.84202	-195.81420	690.33216	-389.55295	-188.99494	823.89367	-781.27301	-185.69601	682.80807	-799.09693	-301.76793	819.52352	-781.26241	-298.53408	678.73224	-768.51701	-164.60871	970.73802	-471.11542	-352.37589	1003.24735	-552.82001	-158.72274	957.53140	-710.44816	-351.43303	1003.56312	-651.61245	-249.64935	1466.71414	-612.68325	-178.59556	1438.79823	-445.72539	-178.70864	1422.70595	-772.10886	-138.39551	1378.35229	-589.34040	-139.43937	1370.94814	-623.59994	-244.16473	1223.54148	-341.48070	-330.67385	1139.98850	-365.70625	-284.32699	1144.17020	-310.77258	-157.53172	1115.76345	-370.26174	-80.51203	1122.45769	-433.81262	-78.14279	1081.10417	-416.92910	-249.20581	1207.84095	-863.93661	-319.12993	1106.44038	-819.74543	-293.56570	1110.55083	-885.45911	-160.69650	1057.08974	-838.04327	-74.25910	1045.91497	-781.58017	-83.24352	1002.03775	-789.43153	-238.75918	888.49091	-507.21551	-245.83192	889.87563	-697.75069	-232.24237	891.75891	-505.25821	-230.73226	892.26452	-663.49777	
